# xmcd CD database file
#
# Track frame offsets:
#	150
#	19500
#	44175
#	63375
#
# Disc length: 1172 seconds
#
# Revision: 1
# Processed by: cddbd v1.5.1PL0 Copyright (c) Steve Scherf et al.
# Submitted via: freeDBTagger 0.5
#
DISCID=31049204
DTITLE=角松敏生 - 心配|YOKOHAMA Twilight Time
DYEAR=2001
DGENRE=rock
TTITLE0=心配
TTITLE1=YOKOHAMA Twilight Time(20th Anniversary Version)
TTITLE2=心配(Instrumental)
TTITLE3=YOKOHAMA Twilight Time(20th Anniversary Version - Instrumental)
EXTD=
EXTT0=
EXTT1=
EXTT2=
EXTT3=
PLAYORDER=
